<svg xmlns="http://www.w3.org/2000/svg" xmlns:xlink="http://www.w3.org/1999/xlink" width="1520" height="1520" viewBox="0 0 1520 1520" fill="none"><path d="M674.311 994.197L531.111 992.597C424.311 991.397 359.111 858.297 413.711 752.997L486.911 611.897C574.011 443.897 787.011 446.397 870.311 616.297L940.311 759.097C992.511 865.597 924.211 997.097 817.511 995.897L674.311 994.197Z"   fill="#73A1D8" ></path><path d="M544.111 1187.6L616.211 1192.3C622.211 1191.4 626.211 1186.2 623.811 1182.4L619.811 1171.7C617.511 1168 613.911 1150.2 614.211 1145.9L632.211 934.297L467.511 958.297C473.411 1021.5 495.411 1113.8 524.211 1175.4C527.511 1182.2 533.911 1189.2 544.111 1187.6Z"   fill="#73A1D8" ></path><path d="M802.211 1197.7L869.211 1176.4C875.211 1175.9 878.211 1171 874.911 1167.2L869.411 1160.8C866.211 1157.1 863.611 1154.9 863.111 1150.6L834.911 953.497L661.311 974.297C681.111 1036.4 733.911 1125.9 777.01 1187.8C781.81 1194.6 792.01 1198.6 802.211 1197.7Z"   fill="#73A1D8" ></path><path d="M750.811 697.797C750.811 724.362 729.275 745.897 702.711 745.897C676.146 745.897 654.611 724.362 654.611 697.797C654.611 671.232 676.146 649.697 702.711 649.697C729.275 649.697 750.811 671.232 750.811 697.797Z"   fill="#FFFFFF" ></path><path d="M743.511 711.897C743.511 726.256 731.87 737.897 717.511 737.897C703.151 737.897 691.511 726.256 691.511 711.897C691.511 697.537 703.151 685.897 717.511 685.897C731.87 685.897 743.511 697.537 743.511 711.897Z"   fill="#494949" ></path><path d="M846.911 700.697C846.911 727.262 825.375 748.797 798.811 748.797C772.246 748.797 750.711 727.262 750.711 700.697C750.711 674.132 772.246 652.597 798.811 652.597C825.375 652.597 846.911 674.132 846.911 700.697Z"   fill="#FFFFFF" ></path><path d="M836.811 714.397C836.811 728.756 825.17 740.397 810.811 740.397C796.451 740.397 784.811 728.756 784.811 714.397C784.811 700.037 796.451 688.397 810.811 688.397C825.17 688.397 836.811 700.037 836.811 714.397Z"   fill="#494949" ></path><path d="M711.611 810.397C721.911 821.997 738.911 828.897 754.311 827.297C770.611 825.697 784.811 817.297 794.211 803.897C796.511 800.597 796.911 794.997 795.911 791.297C794.911 787.497 791.911 783.397 788.411 781.497C780.011 777.097 771.311 779.897 766.011 787.397C764.111 790.097 769.311 783.297 766.911 786.197C766.011 787.297 764.911 788.397 763.911 789.397C763.311 789.997 762.611 790.597 761.911 791.097C760.011 792.697 763.411 789.897 763.611 789.797C763.111 789.997 762.611 790.497 762.111 790.897C760.111 792.297 757.911 793.397 755.711 794.397C757.011 793.797 758.311 793.297 759.611 792.697C756.711 793.897 753.811 794.697 750.811 795.097C752.311 794.897 753.711 794.697 755.211 794.497C752.111 794.897 749.011 794.897 745.811 794.497C747.311 794.697 748.711 794.897 750.211 795.097C747.211 794.697 744.211 793.897 741.411 792.697C742.711 793.297 744.011 793.797 745.311 794.397C743.511 793.597 741.711 792.697 740.011 791.697C739.311 791.197 738.511 790.797 737.811 790.297C737.511 790.097 737.211 789.897 736.911 789.697C735.611 788.797 740.611 792.697 738.811 791.197C737.411 789.997 736.011 788.797 734.811 787.397C729.111 780.997 717.411 781.097 711.611 787.397C705.311 794.097 705.611 803.597 711.611 810.397Z"   fill="#418BD6" ></path><path d="M719.711 802.297C728.311 813.097 742.011 818.797 755.711 816.697C765.711 815.097 774.411 808.997 780.311 800.897C781.811 798.697 780.711 795.397 778.511 794.197C776.011 792.797 773.311 793.797 771.811 795.997C771.511 796.497 771.011 796.997 771.711 796.197C771.311 796.697 770.811 797.297 770.411 797.797C769.211 799.197 767.911 800.497 766.511 801.597C762.911 804.497 758.611 806.497 754.011 807.197C743.411 808.997 733.311 803.597 726.811 795.497C725.111 793.397 721.611 793.797 719.811 795.497C717.711 797.397 718.111 800.197 719.711 802.297Z"   fill="#494949" ></path><path d="M651.411 607.097C651.911 606.197 652.511 605.397 653.111 604.597C653.711 603.797 652.511 605.397 653.211 604.497C653.511 604.097 653.811 603.797 654.111 603.397C654.711 602.597 655.411 601.897 656.111 601.197C659.811 597.297 663.911 594.197 668.711 591.797C680.111 586.197 693.511 587.697 704.111 594.197C709.511 597.497 714.511 588.997 709.111 585.697C695.711 577.497 679.311 576.197 665.011 582.697C656.111 586.697 648.211 593.897 642.911 602.197C639.511 607.497 648.011 612.397 651.411 607.097Z"   fill="#494949" ></path><path d="M828.711 581.097C820.711 573.797 810.311 569.097 799.511 567.797C784.911 566.097 770.411 572.097 760.511 582.697C756.211 587.297 763.111 594.297 767.511 589.697C775.611 580.997 787.311 576.097 799.311 577.697C804.811 578.397 810.111 580.497 814.911 583.297C816.711 584.297 818.411 585.497 820.111 586.697C819.211 585.997 820.511 587.097 820.911 587.297C821.211 587.597 821.511 587.897 821.911 588.097C826.411 592.297 833.411 585.297 828.711 581.097Z"   fill="#494949" ></path><path d="M777.411 368.797L752.111 382.197C747.411 384.697 747.111 391.397 751.711 394.197L776.011 409.397C791.311 418.997 811.311 408.397 811.911 390.297C812.511 372.297 793.411 360.297 777.411 368.797Z"   fill="#2BAA58" ></path><path d="M728.111 359.897L745.511 384.897C748.111 388.597 753.711 388.097 755.711 383.997L768.611 356.397C776.311 339.997 763.311 321.497 745.311 323.097C727.311 324.597 717.711 345.097 728.111 359.897Z"   fill="#2BAA58" ></path><path d="M751.111 381.697C720.011 403.797 699.611 438.797 697.911 477.197C697.411 488.497 698.611 499.797 701.111 510.797C702.511 516.997 712.011 514.397 710.611 508.197C705.911 487.697 706.911 466.197 713.711 446.297C719.611 429.097 730.011 413.697 743.111 401.097C745.711 398.697 748.311 396.297 751.111 394.097C751.611 393.697 752.111 393.297 752.711 392.897C753.711 392.097 751.911 393.497 752.911 392.797C753.211 392.597 753.411 392.397 753.711 392.197C754.511 391.597 755.411 390.997 756.211 390.297C758.411 388.797 759.411 385.997 758.011 383.597C756.511 381.397 753.211 380.197 751.111 381.697Z"   fill="#2BAA58" ></path><path d="M451.411 765.297C444.811 777.997 446.611 793.197 450.211 806.597C453.311 818.197 458.711 829.197 465.611 838.897C480.811 860.297 502.611 876.197 526.311 886.997C553.411 899.397 583.111 905.697 612.811 906.497C616.511 906.597 620.311 906.897 623.811 905.697C627.211 904.497 630.311 902.497 632.811 899.997C637.111 895.697 640.811 887.497 634.711 882.897C631.811 880.797 627.611 880.597 624.211 879.397C623.411 879.097 622.611 878.797 621.811 878.497C621.511 878.397 620.611 877.997 621.411 878.297C620.811 878.097 620.311 877.797 619.711 877.597C617.511 876.597 615.411 875.597 613.311 874.497C600.111 867.897 587.411 860.397 574.511 853.097C562.511 846.297 551.511 837.897 541.711 828.297C538.411 825.097 535.211 821.697 532.211 818.197C528.011 813.497 521.111 820.397 525.211 825.197C535.211 836.497 546.511 846.697 559.011 855.097C570.511 862.897 583.111 869.297 595.211 875.997C603.611 880.597 612.211 885.497 621.311 888.697C622.711 889.197 624.111 889.597 625.511 889.997C626.111 890.097 626.611 890.197 627.211 890.297C627.511 890.397 628.011 890.497 628.211 890.497C629.011 890.397 628.511 890.997 628.311 889.997C628.111 888.497 628.011 889.497 627.811 890.097C627.511 890.797 626.711 891.897 626.011 892.697C624.211 894.597 621.711 896.397 619.011 896.697C615.911 897.097 612.411 896.597 609.211 896.497C605.511 896.297 601.911 896.097 598.211 895.797C591.411 895.197 584.711 894.297 578.011 892.997C564.611 890.497 551.411 886.797 538.711 881.697C516.211 872.797 495.011 859.297 479.311 840.797C465.511 824.597 455.211 802.297 456.611 780.597C456.811 776.897 458.011 773.397 459.711 770.097C462.811 764.597 454.411 759.597 451.411 765.297Z"   fill="#494949" ></path><path d="M968.211 1001.9L976.511 979.197C979.611 970.797 990.211 968.097 996.911 974.097L1025.41 999.597C1028.31 1002.2 1026.51 1007.1 1022.61 1007.1C1005.91 1011.7 989.111 1011.8 972.211 1007.7C969.311 1007.7 967.211 1004.7 968.211 1001.9Z"   fill="#73A1D8" ></path><path d="M1125.41 954.397L973.711 935.697C973.511 935.697 973.411 935.597 973.211 935.597C968.711 934.497 958.311 933.597 947.611 934.897L808.611 952.197L672.911 969.097C668.011 969.697 667.611 976.697 672.411 977.897L805.411 1009.4C815.211 1011.7 828.211 1012.9 839.111 1011.5L843.511 1010.9L1113.81 977.297C1118.51 976.697 1122.71 974.497 1125.71 971.297L1125.41 954.397Z"   fill="#CECECE" ></path><path d="M1108.71 987.297L833.811 1020.2C831.311 1020.5 828.811 1020.3 826.511 1019.7C826.311 1019.7 826.211 1019.6 826.011 1019.6C820.011 1017.9 815.011 1013.4 812.811 1007.4C812.311 1006 811.911 1004.4 811.711 1002.8L810.911 825.897C809.611 814.997 817.411 805.097 828.311 803.797L1103.11 770.897C1114.01 769.597 1123.91 777.397 1125.21 788.297L1126.01 965.097C1127.41 976.097 1119.61 985.997 1108.71 987.297Z"   fill="#E8E8E8" ></path><path d="M826.011 1019.6C773.711 1008.7 721.511 990.597 669.211 979.697C668.211 976.897 668.111 974.397 669.211 972.097L812.811 1007.3C815.011 1013.4 820.011 1017.9 826.011 1019.6Z"   fill="#E8E8E8" ></path><path d="M989.711 892.197L981.411 896.197C979.911 896.897 979.411 898.897 980.611 899.797L987.111 904.397C991.211 907.297 997.711 904.097 998.911 898.697C1000.01 893.197 994.911 889.597 989.711 892.197Z"   fill="#494949" ></path><path d="M975.411 889.497L979.311 896.997C979.911 898.097 981.611 897.997 982.411 896.697L987.711 888.397C990.911 883.497 988.011 877.897 982.511 878.397C977.011 878.897 973.111 884.997 975.411 889.497Z"   fill="#494949" ></path><path d="M981.111 895.997C972.611 900.597 965.811 908.297 962.611 917.097C961.911 918.997 964.611 919.697 965.311 917.897C968.311 909.897 974.411 902.797 982.211 898.597C984.011 897.597 982.911 895.097 981.111 895.997Z"   fill="#494949" ></path></svg>